# xmcd CD database file
#
# Track frame offsets:
#	150
#	14592
#	27575
#	47240
#	61310
#	69787
#	80167
#	92537
#	114245
#	129255
#	140860
#	164185
#	178430
#	199527
#	206520
#
# Disc length: 2989 seconds
#
# Revision: 3
# Processed by: cddbd v1.5.2PL0 Copyright (c) Steve Scherf et al.
# Submitted via: CDex 1.51
#
DISCID=dd0bab0f
DTITLE=Kaiser - Mansfield - Trimmed and Burnin'
DYEAR=1990
DGENRE=Blues
TTITLE0=Great Change Since I've Been Born
TTITLE1=Keep Your Lamp Trimmed and Burnin'
TTITLE2=Shaky Ground
TTITLE3=Nobody's Fault But Mine
TTITLE4=Go Tell Pharaoh
TTITLE5=You Got To Move
TTITLE6=In the Light of the Morning Star
TTITLE7=Celestial Shore
TTITLE8=Jesus is Comin' Soon
TTITLE9=God Don't Never Change
TTITLE10=What You Did
TTITLE11=I Belong to the Band
TTITLE12=You Got To Die
TTITLE13=Cornerstone
TTITLE14=We Shall See the King
EXTD=YEAR: 1990
EXTT0=
EXTT1=
EXTT2=
EXTT3=
EXTT4=
EXTT5=
EXTT6=
EXTT7=
EXTT8=
EXTT9=
EXTT10=
EXTT11=
EXTT12=
EXTT13=
EXTT14=
PLAYORDER=
